<?xml version="1.0" standalone="no"?>
<!DOCTYPE svg PUBLIC "-//W3C//DTD SVG 20010904//EN"
 "http://www.w3.org/TR/2001/REC-SVG-20010904/DTD/svg10.dtd">
<svg version="1.0" xmlns="http://www.w3.org/2000/svg"
 width="576.000000pt" height="576.000000pt" viewBox="0 0 576.000000 576.000000"
 preserveAspectRatio="xMidYMid meet">
<metadata>
Created by potrace 1.11, written by Peter Selinger 2001-2013
</metadata>
<g transform="translate(0.000000,576.000000) scale(0.100000,-0.100000)"
fill="#000000" stroke="none">
<path d="M4277 5124 c-3 -3 -31 -6 -64 -8 -101 -4 -132 -44 -134 -171 0 -32 0
-150 0 -350 0 -11 0 -47 0 -80 0 -74 0 -75 1 -159 1 -37 -1 -70 -3 -73 -2 -2
-24 13 -48 33 -24 20 -64 52 -89 72 -24 21 -63 53 -86 72 -55 46 -105 87 -179
146 -33 27 -62 51 -65 54 -3 3 -39 33 -80 65 -41 33 -82 67 -90 75 -8 8 -55
47 -103 85 -48 39 -102 83 -120 98 -106 93 -201 131 -332 131 -106 0 -127 -4
-203 -39 -49 -23 -156 -97 -187 -130 -5 -6 -32 -29 -60 -50 -66 -53 -95 -76
-117 -97 -10 -10 -21 -18 -24 -18 -4 0 -14 -8 -23 -18 -9 -9 -38 -35 -66 -57
-27 -21 -59 -47 -70 -57 -11 -9 -40 -34 -65 -54 -25 -20 -65 -53 -90 -74 -25
-21 -112 -93 -195 -161 -82 -67 -151 -126 -153 -131 -2 -4 -10 -8 -18 -8 -8 0
-14 -4 -14 -8 0 -4 -22 -24 -48 -45 -27 -20 -60 -47 -73 -59 -14 -13 -47 -41
-75 -62 -55 -45 -61 -50 -124 -103 -25 -21 -67 -56 -95 -78 -27 -21 -58 -46
-67 -54 -9 -9 -23 -21 -30 -26 -29 -23 -174 -141 -184 -150 -6 -5 -55 -46
-109 -90 -54 -44 -115 -94 -134 -111 -20 -17 -166 -138 -326 -268 -160 -131
-300 -252 -313 -269 -43 -60 -27 -110 73 -221 6 -6 22 -27 37 -48 15 -20 33
-42 40 -50 7 -7 37 -42 66 -78 65 -79 102 -101 151 -94 32 5 98 48 156 101 11
10 56 47 100 82 44 35 85 69 90 75 6 6 69 58 140 115 72 58 137 112 146 120 9
9 34 30 54 46 21 17 43 35 49 40 6 6 34 28 61 50 28 22 55 44 61 50 6 5 28 24
49 40 21 17 43 35 49 40 6 6 33 28 61 50 27 22 61 50 75 62 23 19 109 90 215
178 22 18 58 48 81 66 22 19 60 50 84 69 24 19 52 43 62 53 10 9 20 17 23 17
3 0 13 8 23 18 10 9 38 33 62 52 24 19 48 40 54 45 6 6 56 47 111 92 55 44
110 89 122 99 11 11 41 35 64 54 24 19 97 80 164 135 66 55 138 114 159 130
22 17 46 37 55 46 53 52 114 74 159 57 19 -7 137 -97 188 -143 6 -5 30 -26 54
-45 24 -19 49 -41 56 -47 7 -7 15 -13 18 -13 3 0 14 -8 24 -17 26 -26 67 -60
152 -128 41 -33 77 -63 80 -67 3 -3 32 -28 65 -55 34 -26 67 -54 75 -61 18
-15 47 -39 102 -84 58 -46 202 -165 338 -278 63 -52 124 -102 135 -111 40 -34
213 -175 255 -209 24 -19 48 -40 54 -45 6 -6 47 -39 91 -75 44 -35 82 -67 85
-70 5 -5 102 -85 126 -104 7 -5 26 -21 44 -36 18 -15 37 -31 44 -36 22 -17
121 -99 126 -104 21 -23 286 -234 305 -244 14 -7 35 -12 48 -11 12 1 29 3 39
4 15 1 65 45 98 87 54 69 187 231 196 239 29 28 45 69 41 106 -6 50 -20 68
-109 141 -23 18 -56 45 -73 59 -57 49 -80 68 -205 170 -69 56 -127 104 -130
108 -3 3 -23 19 -45 36 -21 16 -47 36 -56 45 -9 8 -35 31 -59 50 -24 19 -54
45 -67 58 -13 12 -27 22 -31 22 -4 0 -29 21 -55 45 l-48 45 1 82 c1 46 0 101
-1 123 0 22 -1 45 -1 50 1 6 1 51 1 100 0 50 0 98 0 108 2 38 2 55 2 132 1 44
0 89 -1 100 -1 11 -1 25 -1 30 0 82 0 153 0 165 0 38 0 197 0 213 2 39 2 55 2
127 0 41 1 86 1 100 5 92 -35 155 -105 165 -44 6 -47 6 -137 4 -30 -1 -59 -1
-65 -1 -64 5 -155 6 -155 2 0 -6 -108 -3 -125 4 -7 2 -15 2 -18 0z"/>
<path d="M2847 3979 c-23 -6 -67 -38 -147 -106 -8 -7 -27 -23 -42 -35 -31 -27
-31 -27 -173 -142 -61 -49 -118 -97 -127 -105 -9 -9 -23 -21 -30 -26 -26 -20
-233 -190 -250 -205 -9 -8 -23 -19 -30 -25 -7 -5 -29 -23 -49 -40 -20 -16 -54
-44 -75 -62 -47 -38 -138 -114 -294 -243 -63 -52 -137 -113 -165 -134 -27 -22
-52 -42 -55 -46 -3 -3 -54 -46 -115 -95 -60 -49 -112 -92 -115 -95 -3 -3 -41
-34 -85 -70 -133 -107 -135 -109 -135 -165 0 -54 0 -80 -3 -168 -1 -31 0 -57
3 -57 3 0 5 -27 5 -60 0 -33 -2 -60 -5 -60 -3 0 -3 -56 0 -125 3 -69 3 -125 0
-125 -3 0 -5 -25 -5 -55 0 -30 2 -55 5 -55 3 0 4 -30 2 -67 -2 -38 -2 -81 -2
-98 1 -16 2 -37 1 -45 -1 -28 -1 -104 2 -213 1 -59 0 -107 -3 -107 -3 0 -5
-25 -5 -55 0 -30 2 -55 5 -55 4 0 4 -71 0 -150 -3 -51 8 -147 19 -168 18 -33
78 -74 114 -78 29 -3 147 -4 300 -3 31 0 62 -3 67 -6 6 -3 10 -3 10 2 0 4 26
7 57 5 32 -1 63 -3 68 -3 6 1 37 2 71 3 33 1 65 -2 71 -5 7 -4 14 -4 16 0 3 5
65 7 139 6 168 -3 390 1 396 7 1 1 5 3 10 4 42 9 102 90 102 138 -1 13 -1 52
-1 88 0 36 -1 89 -2 118 -1 28 0 52 3 52 4 0 3 82 -1 165 -1 6 0 35 0 65 1 30
1 98 1 150 -1 52 -1 100 0 105 3 26 0 208 -4 212 -9 10 24 97 46 120 41 44 80
53 222 53 72 0 138 1 146 1 68 3 382 -1 415 -6 11 -1 26 -3 34 -4 7 0 30 -19
51 -40 30 -31 40 -50 45 -88 7 -53 8 -73 5 -88 -1 -5 -1 -66 0 -135 1 -69 1
-132 1 -140 0 -8 0 -98 0 -200 0 -102 0 -192 0 -200 0 -8 -1 -66 -1 -129 -1
-99 2 -119 22 -159 41 -82 57 -87 318 -88 124 0 231 -4 238 -8 7 -4 12 -4 12
1 0 4 44 7 97 5 54 -1 105 -2 113 -2 48 0 161 0 194 -1 21 0 40 2 43 4 2 3 18
1 34 -3 16 -5 29 -6 29 -2 0 4 23 7 50 7 28 0 50 -2 50 -5 0 -3 31 -3 70 1 77
7 132 39 152 87 15 37 26 112 18 117 -4 2 -4 25 0 50 4 25 4 48 0 50 -4 2 -4
25 0 50 4 25 4 45 1 45 -3 0 -6 27 -6 60 0 33 2 60 5 60 3 0 4 46 3 102 -2
111 -3 180 -4 242 0 21 0 42 -1 45 0 3 0 8 1 11 5 13 5 120 1 120 -3 0 -5 27
-5 60 0 33 2 60 5 60 3 0 4 46 3 102 -2 111 -3 180 -4 242 0 21 0 42 -1 45 0
3 0 8 1 11 5 13 5 120 1 120 -3 0 -4 20 -2 45 4 47 -13 105 -30 105 -5 0 -15
6 -22 13 -7 6 -32 28 -56 47 -24 19 -48 40 -54 45 -9 9 -66 55 -190 155 -10 8
-23 20 -30 25 -6 6 -49 42 -96 80 -47 39 -94 77 -105 87 -11 9 -54 44 -95 78
-41 33 -84 69 -95 78 -11 10 -69 58 -130 107 -60 49 -112 92 -115 95 -3 3 -30
25 -60 50 -30 24 -63 51 -72 60 -9 8 -23 20 -30 25 -45 35 -174 140 -178 145
-3 3 -41 35 -85 70 -44 35 -82 67 -85 70 -3 3 -39 32 -80 65 -41 33 -85 69
-97 80 -12 11 -28 25 -35 30 -7 6 -37 30 -66 54 -56 47 -101 62 -145 50z"/>
</g>
</svg>
